<svg width="17" height="17" viewBox="0 0 17 17" fill="none" xmlns="http://www.w3.org/2000/svg">
<path d="M4.25 7.08332V5.66666C4.25 3.32207 4.95833 1.41666 8.5 1.41666C12.0417 1.41666 12.75 3.32207 12.75 5.66666V7.08332" stroke="#292D32" stroke-width="1.5" stroke-linecap="round" stroke-linejoin="round"/>
<path d="M8.49984 13.1042C9.47784 13.1042 10.2707 12.3113 10.2707 11.3333C10.2707 10.3553 9.47784 9.5625 8.49984 9.5625C7.52183 9.5625 6.729 10.3553 6.729 11.3333C6.729 12.3113 7.52183 13.1042 8.49984 13.1042Z" stroke="#292D32" stroke-width="1.5" stroke-linecap="round" stroke-linejoin="round"/>
<path d="M12.0415 15.5833H4.95817C2.12484 15.5833 1.4165 14.875 1.4165 12.0417V10.625C1.4165 7.79168 2.12484 7.08334 4.95817 7.08334H12.0415C14.8748 7.08334 15.5832 7.79168 15.5832 10.625V12.0417C15.5832 14.875 14.8748 15.5833 12.0415 15.5833Z" stroke="#292D32" stroke-width="1.5" stroke-linecap="round" stroke-linejoin="round"/>
</svg>
