<svg width="18" height="17" viewBox="0 0 18 17" fill="none" xmlns="http://www.w3.org/2000/svg">
<path d="M7.17673 7.73761C7.10641 7.73058 7.02202 7.73058 6.94467 7.73761C5.27099 7.68135 3.94189 6.31006 3.94189 4.62232C3.94189 2.89942 5.33428 1.5 7.06422 1.5C8.78712 1.5 10.1865 2.89942 10.1865 4.62232C10.1795 6.31006 8.85041 7.68135 7.17673 7.73761Z" stroke="white" stroke-width="1.05484" stroke-linecap="round" stroke-linejoin="round"/>
<path d="M12.2755 2.90637C13.6398 2.90637 14.7368 4.01044 14.7368 5.36766C14.7368 6.69676 13.682 7.77973 12.3669 7.82895C12.3107 7.82192 12.2474 7.82192 12.1841 7.82895" stroke="white" stroke-width="1.05484" stroke-linecap="round" stroke-linejoin="round"/>
<path d="M3.66063 10.3325C1.95883 11.4717 1.95883 13.3282 3.66063 14.4604C5.5945 15.7544 8.76605 15.7544 10.6999 14.4604C12.4017 13.3212 12.4017 11.4647 10.6999 10.3325C8.77308 9.04558 5.60154 9.04558 3.66063 10.3325Z" stroke="white" stroke-width="1.05484" stroke-linecap="round" stroke-linejoin="round"/>
<path d="M13.6328 14.1581C14.1391 14.0526 14.6173 13.8487 15.0111 13.5463C16.1082 12.7235 16.1082 11.3663 15.0111 10.5435C14.6244 10.2481 14.1532 10.0512 13.6539 9.93872" stroke="white" stroke-width="1.05484" stroke-linecap="round" stroke-linejoin="round"/>
</svg>
