<svg width="266" height="146" viewBox="0 0 266 146" fill="none" xmlns="http://www.w3.org/2000/svg">
<g filter="url(#filter0_d_339_2167)">
<path d="M261.716 118.44V136.6H237.556C239.423 135.8 240.356 133.8 240.356 130.6V83.16C240.356 79.8 239.423 77.8 237.556 77.16H252.516C250.649 78.12 249.716 80.12 249.716 83.16V130.76C249.716 133.107 250.329 134.28 251.556 134.28C254.063 134.28 256.329 132.2 258.356 128.04C259.849 124.947 260.809 121.747 261.236 118.44H261.716Z" fill="white"/>
<path d="M210.152 96.68L204.952 126.28C204.898 126.547 204.845 126.893 204.792 127.32C204.792 127.747 204.792 128.227 204.792 128.76C204.792 130.787 205.112 132.387 205.752 133.56C206.392 134.68 207.565 135.693 209.272 136.6H196.472C198.712 135.427 200.472 133.133 201.752 129.72C201.858 129.453 201.965 129.16 202.072 128.84C202.178 128.467 202.285 128.067 202.392 127.64L209.752 85.96C209.805 85.7467 209.832 85.16 209.832 84.2C209.832 81 208.765 78.6534 206.632 77.16H221.592L230.232 127.56C231.138 132.467 232.845 135.48 235.352 136.6H218.472C220.072 135.32 220.872 133.293 220.872 130.52C220.872 129.347 220.792 128.307 220.632 127.4L217.192 107.88C215.805 100.413 213.458 96.68 210.152 96.68ZM210.712 93.8H214.712C214.605 92.7867 214.365 91.3467 213.992 89.48C213.672 87.6134 213.245 85.2667 212.712 82.44C212.605 83.24 212.418 84.2534 212.152 85.48C211.938 86.6534 211.698 88.04 211.432 89.64L210.712 93.8Z" fill="white"/>
<path d="M177.432 84.36V128.04C177.432 131.72 178.765 134.573 181.432 136.6H170.872C173.592 134.68 174.952 131.827 174.952 128.04V87C174.952 82.36 174.072 79.08 172.312 77.16H185.112L194.712 103.32V85.64C194.712 82.0134 193.352 79.1867 190.632 77.16H201.192C198.472 79.1867 197.112 82.04 197.112 85.72V137.16C196.205 137.053 195.432 136.12 194.792 134.36L177.432 84.36Z" fill="white"/>
<path d="M165.823 83.16V130.6C165.823 133.533 166.756 135.533 168.623 136.6H153.663C155.529 135.8 156.463 133.8 156.463 130.6V83.16C156.463 79.8 155.529 77.8 153.663 77.16H168.623C166.756 78.12 165.823 80.12 165.823 83.16Z" fill="white"/>
<path d="M128.88 130.6V83.16C128.88 80.9733 127.6 79.88 125.04 79.88C123.333 79.88 122 80.52 121.04 81.8C120.08 83.08 119.6 84.6 119.6 86.36C119.6 89.8267 121.093 91.8533 124.08 92.44C123.333 93.5067 121.84 94.04 119.6 94.04C117.573 94.04 115.787 93.1867 114.24 91.48C112.747 89.7733 112 87.8267 112 85.64C112 82.9733 113.013 80.84 115.04 79.24C116.853 77.7467 119.147 77 121.92 77H123.68C123.84 77 124.107 77.0267 124.48 77.08C124.907 77.1333 125.227 77.16 125.44 77.16H151.36V94.12H150.96C150.96 90.3333 150.24 87.1867 148.8 84.68C147.04 81.6933 144.373 80.2 140.8 80.2C139.093 80.2 138.24 81.1067 138.24 82.92V93.96H147.68V109.08H147.2C147.2 107 146.64 104.547 145.52 101.72C144.133 98.36 142.56 96.68 140.8 96.68C139.093 96.68 138.24 97.5333 138.24 99.24V130.76C138.24 133.587 139.173 135.533 141.04 136.6H126.08C127.947 135.8 128.88 133.8 128.88 130.6Z" fill="white"/>
</g>
<g filter="url(#filter1_d_339_2167)">
<path d="M215.643 59.28C219.27 59.28 221.083 48.8534 221.083 28C221.083 11.2534 219.27 2.88003 215.643 2.88003C212.123 2.88003 210.363 11.2534 210.363 28C210.363 48.8534 212.123 59.28 215.643 59.28ZM215.643 61.76C213.616 61.76 211.27 60.2667 208.603 57.28C205.563 53.6534 203.243 48.9067 201.643 43.04C200.31 38.08 199.643 32.8 199.643 27.2C199.643 18.8267 201.216 12.2667 204.363 7.52002C207.563 2.77336 211.323 0.400024 215.643 0.400024C221.723 0.400024 226.336 4.56003 229.483 12.88C231.03 17.2 231.803 21.9734 231.803 27.2C231.803 32.5334 231.11 37.8134 229.723 43.04C228.123 49.0134 225.803 53.76 222.763 57.28C220.096 60.2667 217.723 61.76 215.643 61.76Z" fill="white"/>
<path d="M194.594 7.12012V54.5601C194.594 57.4935 195.527 59.4935 197.394 60.5601H182.434C184.301 59.7601 185.234 57.7601 185.234 54.5601V7.12012C185.234 3.76012 184.301 1.76012 182.434 1.12012H197.394C195.527 2.08012 194.594 4.08012 194.594 7.12012Z" fill="white"/>
<path d="M178.946 0V24.48C177.719 23.84 176.652 22.56 175.746 20.64C174.999 18.9333 174.599 17.3067 174.546 15.76C174.492 14.8533 174.466 13.9467 174.466 13.04C174.466 12.08 174.466 11.1467 174.466 10.24C174.306 8.37333 173.879 6.64 173.186 5.04C172.599 3.81333 171.559 3.2 170.066 3.2C167.452 3.2 165.852 5.01333 165.266 8.64C164.892 10.72 164.626 13.2533 164.466 16.24C164.306 19.2267 164.226 22.6933 164.226 26.64C164.226 28.2933 164.306 30.8267 164.466 34.24C164.466 37.44 164.706 41.8667 165.186 47.52C165.399 48.4267 165.639 49.4667 165.906 50.64C166.226 51.76 166.599 53.0133 167.026 54.4C167.986 57.3867 169.346 58.88 171.106 58.88C173.132 58.88 174.572 57.4933 175.426 54.72C176.599 50.9867 177.186 46.24 177.186 40.48C177.186 39.36 177.799 38.8 179.026 38.8C179.826 38.8 180.226 39.6533 180.226 41.36C180.226 47.3333 179.159 52.48 177.026 56.8C175.479 59.84 173.266 61.36 170.386 61.36C165.212 61.36 161.106 57.36 158.066 49.36C155.026 41.36 153.506 34.0267 153.506 27.36C153.506 18.6667 155.079 12.0267 158.226 7.44C161.319 2.90667 164.972 0.639999 169.186 0.639999C170.092 0.639999 172.226 1.06667 175.586 1.92C175.906 2.02667 177.026 1.38667 178.946 0Z" fill="white"/>
<path d="M150.019 7.12012V54.5601C150.019 57.4935 150.952 59.4935 152.819 60.5601H137.859C139.726 59.7601 140.659 57.7601 140.659 54.5601V7.12012C140.659 3.76012 139.726 1.76012 137.859 1.12012H152.819C150.952 2.08012 150.019 4.08012 150.019 7.12012Z" fill="white"/>
<path d="M129.032 48.0001V9.68012C129.032 6.00012 127.699 3.14678 125.032 1.12012H135.592C132.872 3.04012 131.512 5.89345 131.512 9.68012V48.0801C131.512 51.9201 130.659 55.0135 128.952 57.3601C127.032 60.0268 124.232 61.3601 120.552 61.3601C116.392 61.3601 113.165 60.1868 110.872 57.8401C108.632 55.4935 107.512 52.2401 107.512 48.0801V7.12012C107.512 3.76012 106.579 1.76012 104.712 1.12012H119.672C117.805 2.08012 116.872 4.08012 116.872 7.12012V48.0001C116.872 54.4535 118.872 57.6801 122.872 57.6801C126.979 57.6801 129.032 54.4535 129.032 48.0001Z" fill="white"/>
<path d="M76.0162 114C71.4381 114 67.3716 112.325 63.8169 108.976C59.939 105.363 58 100.799 58 95.2816C58 90.6841 59.2388 86.7762 61.7163 83.558C64.14 80.4054 67.2101 78.8291 70.9264 78.8291C73.0269 78.8291 74.912 79.5844 76.5817 81.095C75.2352 81.2921 73.7002 82.1459 71.9767 83.6565C69.1221 86.218 67.6948 90.0273 67.6948 95.0846C67.6948 98.8282 68.7451 102.572 70.8456 106.316C72.246 108.811 74.7774 110.059 78.4399 110.059C83.6104 110.059 86.9767 106.907 88.5386 100.602C89.9928 94.8219 90.7199 86.2508 90.7199 74.8884V8.38884C90.7199 4.38245 89.7774 1.9195 87.8923 1H103C101.115 2.18221 100.172 4.64516 100.172 8.38884V74.1988C100.172 83.3281 98.9066 91.4723 96.3752 98.6312C94.6517 103.36 91.9049 107.104 88.1347 109.862C84.3106 112.621 80.2711 114 76.0162 114Z" fill="white"/>
<path d="M69.8226 42.4001V60.5601H45.6626C47.5293 59.7601 48.4626 57.7601 48.4626 54.5601V7.12012C48.4626 3.76012 47.5293 1.76012 45.6626 1.12012H60.6226C58.7559 2.08012 57.8226 4.08012 57.8226 7.12012V54.7201C57.8226 57.0668 58.4359 58.2401 59.6626 58.2401C62.1693 58.2401 64.4359 56.1601 66.4626 52.0001C67.9559 48.9068 68.9159 45.7068 69.3426 42.4001H69.8226Z" fill="white"/>
<path d="M20.88 54.5601V7.12009C20.88 4.93342 19.6 3.84008 17.04 3.84008C15.3333 3.84008 14 4.48008 13.04 5.76008C12.08 7.04009 11.6 8.56009 11.6 10.3201C11.6 13.7868 13.0933 15.8134 16.08 16.4001C15.3333 17.4668 13.84 18.0001 11.6 18.0001C9.57333 18.0001 7.78667 17.1468 6.24 15.4401C4.74667 13.7334 4 11.7868 4 9.60009C4 6.93342 5.01333 4.80009 7.04 3.20009C8.85333 1.70675 11.1467 0.960083 13.92 0.960083H15.68C15.84 0.960083 16.1067 0.986753 16.48 1.04009C16.9067 1.09342 17.2267 1.12009 17.44 1.12009H43.36V18.0801H42.96C42.96 14.2934 42.24 11.1468 40.8 8.64009C39.04 5.65342 36.3733 4.16009 32.8 4.16009C31.0933 4.16009 30.24 5.06675 30.24 6.88009V17.9201H39.68V33.0401H39.2C39.2 30.9601 38.64 28.5068 37.52 25.6801C36.1333 22.3201 34.56 20.6401 32.8 20.6401C31.0933 20.6401 30.24 21.4934 30.24 23.2001V54.7201C30.24 57.0668 31.2533 58.2401 33.28 58.2401C35.7867 58.2401 38.0533 56.1601 40.08 52.0001C41.52 48.9601 42.48 45.7601 42.96 42.4001H43.36V60.5601H18.08C18.4 60.4534 19.0133 59.8134 19.92 58.6401C20.56 57.7868 20.88 56.4268 20.88 54.5601Z" fill="white"/>
</g>
<defs>
<filter id="filter0_d_339_2167" x="108" y="77" width="157.716" height="68.16" filterUnits="userSpaceOnUse" color-interpolation-filters="sRGB">
<feFlood flood-opacity="0" result="BackgroundImageFix"/>
<feColorMatrix in="SourceAlpha" type="matrix" values="0 0 0 0 0 0 0 0 0 0 0 0 0 0 0 0 0 0 127 0" result="hardAlpha"/>
<feOffset dy="4"/>
<feGaussianBlur stdDeviation="2"/>
<feComposite in2="hardAlpha" operator="out"/>
<feColorMatrix type="matrix" values="0 0 0 0 0 0 0 0 0 0 0 0 0 0 0 0 0 0 0.25 0"/>
<feBlend mode="normal" in2="BackgroundImageFix" result="effect1_dropShadow_339_2167"/>
<feBlend mode="normal" in="SourceGraphic" in2="effect1_dropShadow_339_2167" result="shape"/>
</filter>
<filter id="filter1_d_339_2167" x="0" y="0" width="235.803" height="122" filterUnits="userSpaceOnUse" color-interpolation-filters="sRGB">
<feFlood flood-opacity="0" result="BackgroundImageFix"/>
<feColorMatrix in="SourceAlpha" type="matrix" values="0 0 0 0 0 0 0 0 0 0 0 0 0 0 0 0 0 0 127 0" result="hardAlpha"/>
<feOffset dy="4"/>
<feGaussianBlur stdDeviation="2"/>
<feComposite in2="hardAlpha" operator="out"/>
<feColorMatrix type="matrix" values="0 0 0 0 0 0 0 0 0 0 0 0 0 0 0 0 0 0 0.25 0"/>
<feBlend mode="normal" in2="BackgroundImageFix" result="effect1_dropShadow_339_2167"/>
<feBlend mode="normal" in="SourceGraphic" in2="effect1_dropShadow_339_2167" result="shape"/>
</filter>
</defs>
</svg>
